<svg width="25" height="27" viewBox="0 0 25 27" version="1.1" xmlns="http://www.w3.org/2000/svg" xmlns:xlink="http://www.w3.org/1999/xlink">
<title>Hamburger</title>
<desc>Created using Figma</desc>
<g id="Canvas" transform="translate(-2012 -1568)">
<g id="Hamburger">
<g id="Rectangle 11 Copy 2">
<use xlink:href="#path0_fill" transform="translate(2012 1593)" fill="#FFFFFF"/>
</g>
<g id="Rectangle 11 Copy">
<use xlink:href="#path1_fill" transform="translate(2012 1584)" fill="#FFFFFF"/>
</g>
<g id="Rectangle 11">
<use xlink:href="#path2_fill" transform="translate(2012 1575)" fill="#FFFFFF"/>
</g>
<g id="Oval 7">
<use xlink:href="#path3_fill" transform="translate(2031 1568)" fill="#01C89A"/>
</g>
</g>
</g>
<defs>
<path id="path0_fill" fill-rule="evenodd" d="M 0 1C 0 0.447715 0.447715 0 1 0L 11 0C 11.5523 0 12 0.447715 12 1C 12 1.55228 11.5523 2 11 2L 1 2C 0.447715 2 0 1.55228 0 1Z"/>
<path id="path1_fill" fill-rule="evenodd" d="M 0 1C 0 0.447715 0.447715 0 1 0L 19 0C 19.5523 0 20 0.447715 20 1C 20 1.55228 19.5523 2 19 2L 1 2C 0.447715 2 0 1.55228 0 1Z"/>
<path id="path2_fill" fill-rule="evenodd" d="M 0 1C 0 0.447715 0.447715 0 1 0L 15 0C 15.5523 0 16 0.447715 16 1C 16 1.55228 15.5523 2 15 2L 1 2C 0.447715 2 0 1.55228 0 1Z"/>
<path id="path3_fill" fill-rule="evenodd" d="M 3 6C 4.65685 6 6 4.65685 6 3C 6 1.34315 4.65685 0 3 0C 1.34315 0 0 1.34315 0 3C 0 4.65685 1.34315 6 3 6Z"/>
</defs>
</svg>
