<svg width="92" height="117" viewBox="0 0 92 117" version="1.1" xmlns="http://www.w3.org/2000/svg" xmlns:xlink="http://www.w3.org/1999/xlink">
<title>Group</title>
<desc>Created using Figma</desc>
<g id="Canvas" transform="translate(496 -1579)">
<g id="Group">
<g id="XMLID 134">
<use xlink:href="#path0_fill" transform="translate(-496 1656.79)" fill="#F8A573"/>
</g>
<g id="XMLID 120">
<g id="XMLID 133">
<use xlink:href="#path1_fill" transform="translate(-492.455 1659.72)" fill="#F6F6F6"/>
</g>
<g id="XMLID 122">
<use xlink:href="#path2_fill" transform="translate(-480.299 1660.08)" fill="#F6F6F6"/>
</g>
<g id="XMLID 121">
<use xlink:href="#path3_fill" transform="translate(-463.618 1690.72)" fill="#F6F6F6"/>
</g>
</g>
<g id="XMLID 117">
<use xlink:href="#path4_fill" transform="translate(-460.292 1579)" fill="#612F2F"/>
</g>
<g id="XMLID 112">
<g id="XMLID 116">
<use xlink:href="#path5_fill" transform="translate(-489.075 1590.65)" fill="#F8A573"/>
</g>
<g id="XMLID 113">
<use xlink:href="#path6_fill" transform="translate(-490.711 1589.01)" fill="#612F2F"/>
</g>
</g>
<g id="XMLID 109">
<g id="XMLID 111">
<use xlink:href="#path7_fill" transform="translate(-478.772 1590.59)" fill="#612F2F"/>
</g>
<g id="XMLID 110">
<use xlink:href="#path8_fill" transform="translate(-424.041 1590.59)" fill="#612F2F"/>
</g>
</g>
<g id="XMLID 86">
<g id="XMLID 98">
<g id="XMLID 104">
<g id="XMLID 108">
<use xlink:href="#path9_fill" transform="translate(-487.658 1626.24)" fill="#B55454"/>
</g>
<g id="XMLID 105">
<use xlink:href="#path10_fill" transform="translate(-490.929 1622.97)" fill="#612F2F"/>
</g>
</g>
<g id="XMLID 99">
<g id="XMLID 103">
<use xlink:href="#path11_fill" transform="translate(-487.658 1617.42)" fill="#F8A573"/>
</g>
<g id="XMLID 100">
<use xlink:href="#path12_fill" transform="translate(-490.929 1614.15)" fill="#612F2F"/>
</g>
</g>
</g>
<g id="XMLID 87">
<g id="XMLID 93">
<g id="XMLID 97">
<use xlink:href="#path13_fill" transform="translate(-426.494 1626.24)" fill="#B55454"/>
</g>
<g id="XMLID 94">
<use xlink:href="#path14_fill" transform="translate(-429.765 1622.97)" fill="#612F2F"/>
</g>
</g>
<g id="XMLID 88">
<g id="XMLID 92">
<use xlink:href="#path15_fill" transform="translate(-426.494 1617.42)" fill="#F8A573"/>
</g>
<g id="XMLID 89">
<use xlink:href="#path16_fill" transform="translate(-429.765 1614.15)" fill="#612F2F"/>
</g>
</g>
</g>
</g>
<g id="XMLID 77">
<g id="XMLID 83">
<use xlink:href="#path17_fill" transform="translate(-476.81 1603.54)" fill="#B55454"/>
</g>
<g id="XMLID 78">
<use xlink:href="#path18_fill" transform="translate(-480.626 1599.73)" fill="#612F2F"/>
</g>
</g>
<g id="XMLID 62">
<g id="XMLID 72">
<g id="XMLID 76">
<use xlink:href="#path19_fill" transform="translate(-473.648 1609.8)" fill="#9A5F5F"/>
</g>
<g id="XMLID 73">
<use xlink:href="#path20_fill" transform="translate(-475.338 1606.59)" fill="#612F2F"/>
</g>
</g>
<g id="XMLID 63">
<g id="XMLID 69">
<use xlink:href="#path21_fill" transform="translate(-474.902 1626.78)" fill="#F8A573"/>
</g>
<g id="XMLID 64">
<use xlink:href="#path22_fill" transform="translate(-475.992 1625.69)" fill="#612F2F"/>
</g>
</g>
</g>
<g id="XMLID 47">
<g id="XMLID 57">
<g id="XMLID 61">
<use xlink:href="#path23_fill" transform="translate(-431.128 1609.69)" fill="#9A5F5F"/>
</g>
<g id="XMLID 58">
<use xlink:href="#path24_fill" transform="translate(-432.763 1606.32)" fill="#612F2F"/>
</g>
</g>
<g id="XMLID 48">
<g id="XMLID 54">
<use xlink:href="#path25_fill" transform="translate(-432.381 1626.78)" fill="#F8A573"/>
</g>
<g id="XMLID 49">
<use xlink:href="#path26_fill" transform="translate(-433.472 1625.69)" fill="#612F2F"/>
</g>
</g>
</g>
<g id="XMLID 15">
<g id="XMLID 40">
<g id="XMLID 44">
<use xlink:href="#path27_fill" transform="translate(-456.749 1653.01)" fill="#612F2F"/>
</g>
<g id="XMLID 41">
<use xlink:href="#path28_fill" transform="translate(-457.294 1652.41)" fill="#612F2F"/>
</g>
</g>
<g id="XMLID 35">
<g id="XMLID 39">
<use xlink:href="#path29_fill" transform="translate(-456.749 1661.61)" fill="#F8A573"/>
</g>
<g id="XMLID 36">
<use xlink:href="#path30_fill" transform="translate(-457.294 1661.06)" fill="#612F2F"/>
</g>
</g>
<g id="XMLID 30">
<g id="XMLID 34">
<use xlink:href="#path31_fill" transform="translate(-450.861 1659.54)" fill="#9A5F5F"/>
</g>
<g id="XMLID 31">
<use xlink:href="#path32_fill" transform="translate(-451.952 1658.45)" fill="#612F2F"/>
</g>
</g>
<g id="XMLID 25">
<g id="XMLID 29">
<use xlink:href="#path33_fill" transform="translate(-451.08 1664.93)" fill="#9A5F5F"/>
</g>
<g id="XMLID 26">
<use xlink:href="#path34_fill" transform="translate(-452.17 1663.84)" fill="#612F2F"/>
</g>
</g>
<g id="XMLID 16">
<g id="XMLID 22">
<use xlink:href="#path35_fill" transform="translate(-451.952 1658.45)" fill="#F8A573"/>
</g>
<g id="XMLID 17">
<use xlink:href="#path36_fill" transform="translate(-453.042 1657.36)" fill="#612F2F"/>
</g>
</g>
</g>
</g>
</g>
<defs>
<path id="path0_fill" d="M 36.4164 39.2087C 36.1438 39.2087 35.8167 39.1543 35.5442 39.0999C 29.7112 37.5761 16.2464 33.1682 18.2089 25.3864C 20.8801 14.9924 39.7962 16.1896 59.8572 17.4413C 66.2352 17.8222 72.2317 18.2031 77.0834 18.1487C 80.5723 18.0943 82.5893 17.8222 83.7341 17.4957C 80.8994 15.972 72.6133 12.9789 48.9 10.1492C 30.9651 8.02684 11.4492 6.88405 3.65382 7.10172C 3.5993 7.10172 3.5993 7.10172 3.54479 7.10172C 1.63682 7.10172 0.0559292 5.578 0.00141575 3.67335C -0.0530977 1.71428 1.47328 0.0817231 3.43576 0.0273045C 11.6673 -0.19037 31.1286 0.898001 49.5541 3.12916C 81.6626 6.93847 88.3677 11.2375 90.6573 14.1217C 91.8566 15.6454 92.2927 17.4957 91.8021 19.2371C 89.8396 26.4203 77.7376 25.6585 59.3666 24.5157C 50.8079 23.9715 41.9768 23.4273 35.1081 23.9171C 27.4762 24.4613 25.6227 26.0938 25.1866 26.8557C 26.3314 28.3794 31.9463 30.9371 37.2886 32.2975C 39.1966 32.7873 40.3414 34.7464 39.7962 36.5966C 39.4691 38.1203 37.9973 39.2087 36.4164 39.2087Z"/>
<path id="path1_fill" d="M 0.0545134 1.12918L 5.19881e-08 0.0408106C 1.14478 -0.013608 2.50762 -0.013608 4.08851 0.0408106L 4.08851 1.12918C 2.56213 1.12918 1.1993 1.12918 0.0545134 1.12918Z"/>
<path id="path2_fill" d="M 9.21277 28.3521C 6.65064 26.774 5.34232 25.1414 5.34232 23.5088C 5.34232 23.2367 5.39683 23.0191 5.45134 22.747C 5.61488 22.2028 5.77843 21.713 6.10551 21.2233L 7.03223 21.8219C 6.81418 22.2028 6.65064 22.5837 6.54161 23.0191C 6.4871 23.1823 6.4871 23.3456 6.4871 23.5088C 6.4871 24.706 7.63188 26.0665 9.86693 27.427L 9.21277 28.3521ZM 61.5457 18.8833L 61.5457 17.7949C 65.0345 17.7405 67.5967 17.4684 69.3411 16.9242L 69.6682 17.9581C 67.7602 18.5567 65.1436 18.8288 61.5457 18.8833ZM 53.4777 18.72C 50.8065 18.6112 47.9173 18.4479 45.4642 18.2847L 45.5187 17.1963C 47.9718 17.3595 50.861 17.5228 53.5322 17.6316L 53.4777 18.72ZM 13.5193 18.3391L 13.3013 17.2507C 15.4818 16.7609 18.153 16.4888 21.3693 16.3256L 21.4238 17.414C 18.262 17.5772 15.6999 17.8493 13.5193 18.3391ZM 37.4507 17.7949C 34.289 17.6316 31.7813 17.5228 29.4373 17.4684L 29.4918 16.38C 31.8358 16.4344 34.398 16.5433 37.5598 16.7609L 37.4507 17.7949ZM 70.7584 12.353C 69.3411 11.3191 66.888 10.2851 63.5627 9.25116L 63.8897 8.21721C 67.3241 9.25117 69.8862 10.3395 71.4126 11.4823L 70.7584 12.353ZM 55.8218 7.34651C 53.4232 6.85674 50.8065 6.36698 47.9173 5.87721L 48.0809 4.78884C 50.9701 5.27861 53.6412 5.76837 56.0398 6.25814L 55.8218 7.34651ZM 40.0129 4.68C 37.4507 4.35349 34.7796 3.97256 32.0539 3.70047L 32.1629 2.61209C 34.8886 2.93861 37.6143 3.26511 40.1764 3.64604L 40.0129 4.68ZM 24.0404 2.82977C 21.4238 2.55767 18.6981 2.34 16.0269 2.12232L 16.136 1.03395C 18.8071 1.25162 21.5328 1.52372 24.1495 1.74139L 24.0404 2.82977ZM 8.01348 1.52372C 5.23329 1.36047 2.50762 1.19721 4.15905e-07 1.08837L 0.054513 0C 2.61664 0.108837 5.2878 0.272095 8.1225 0.435351L 8.01348 1.52372Z"/>
<path id="path3_fill" d="M 3.92497 2.23116C 3.92497 2.23116 2.18054 1.79581 -4.15905e-07 1.03395L 0.381594 1.66072e-06C 2.56213 0.761862 4.25205 1.19721 4.25205 1.19721L 3.92497 2.23116Z"/>
<path id="path4_fill" d="M 11.6114 23.1823C 5.17878 23.1823 8.31809e-07 17.9581 8.31809e-07 11.5912C 8.31809e-07 5.22419 5.23329 0 11.6114 0C 18.0439 0 23.2227 5.22419 23.2227 11.5912C 23.2227 18.0126 18.0439 23.1823 11.6114 23.1823ZM 11.6114 4.84326C 7.90445 4.84326 4.8517 7.8907 4.8517 11.5912C 4.8517 15.2916 7.90445 18.3391 11.6114 18.3391C 15.3183 18.3391 18.371 15.2916 18.371 11.5912C 18.371 7.8907 15.3728 4.84326 11.6114 4.84326Z"/>
<path id="path5_fill" d="M 76.5914 18.2847L 4.19753 18.2847C 1.85346 18.2847 2.07952e-07 16.38 2.07952e-07 14.0944L 2.07952e-07 4.19023C 2.07952e-07 1.85023 1.90797 -2.07591e-07 4.19753 -2.07591e-07L 76.5369 -2.07591e-07C 78.8809 -2.07591e-07 80.7344 1.90465 80.7344 4.19023L 80.7344 14.0944C 80.7889 16.38 78.9355 18.2847 76.5914 18.2847Z"/>
<path id="path6_fill" d="M 78.2268 21.5498L 5.83294 21.5498C 2.61664 21.5498 2.07952e-07 18.9377 2.07952e-07 15.727L 2.07952e-07 5.82279C 2.07952e-07 2.61209 2.61664 -2.07591e-07 5.83294 -2.07591e-07L 78.2268 -2.07591e-07C 81.4431 -2.07591e-07 84.0597 2.61209 84.0597 5.82279L 84.0597 15.727C 84.0597 18.9377 81.4431 21.5498 78.2268 21.5498ZM 5.83294 3.2107C 4.41559 3.2107 3.27081 4.35349 3.27081 5.76837L 3.27081 15.6726C 3.27081 17.0874 4.41559 18.2302 5.83294 18.2302L 78.2268 18.2302C 79.6441 18.2302 80.7889 17.0874 80.7889 15.6726L 80.7889 5.82279C 80.7889 4.40791 79.6441 3.26512 78.2268 3.26512L 5.83294 3.26512L 5.83294 3.2107Z"/>
<path id="path7_fill" d="M 0 18.3391L 5.50586 18.3391L 5.50586 -4.15181e-07L 0 -4.15181e-07L 0 18.3391Z"/>
<path id="path8_fill" d="M -3.32724e-06 18.3391L 5.45134 18.3391L 5.45134 -4.15181e-07L -3.32724e-06 -4.15181e-07L -3.32724e-06 18.3391Z"/>
<path id="path9_fill" d="M -1.03976e-07 1.66072e-06L -1.03976e-07 15.6726C -1.03976e-07 18.2847 2.12602 20.407 4.74267 20.407L 16.7356 20.407L 16.7356 1.66072e-06L -1.03976e-07 1.66072e-06Z"/>
<path id="path10_fill" d="M 20.0064 3.26512L 20.0064 23.6177L 8.01348 23.6177C 5.39683 23.6177 3.27081 21.4953 3.27081 18.8833L 3.27081 3.26512L 20.0064 3.26512ZM 23.2772 1.66072e-06L 20.0064 1.66072e-06L 3.27081 1.66072e-06L -1.03976e-07 1.66072e-06L -1.03976e-07 3.26512L -1.03976e-07 18.9377C -1.03976e-07 23.3456 3.59789 26.9372 8.01348 26.9372L 20.0064 26.9372L 23.2772 26.9372L 23.2772 23.6721L 23.2772 3.26512L 23.2772 1.66072e-06Z"/>
<path id="path11_fill" d="M 16.7356 -8.30362e-07L 4.74267 -8.30362e-07C 2.12602 -8.30362e-07 -1.03976e-07 2.12233 -1.03976e-07 4.73442L -1.03976e-07 8.81582L 16.7356 8.81582L 16.7356 -8.30362e-07Z"/>
<path id="path12_fill" d="M 20.0064 3.26512L 20.0064 12.0809L 3.27081 12.0809L 3.27081 7.99954C 3.27081 5.38744 5.39683 3.26512 8.01348 3.26512L 20.0064 3.26512ZM 23.2772 -8.30362e-07L 20.0064 -8.30362e-07L 8.01348 -8.30362e-07C 3.59789 -8.30362e-07 -1.03976e-07 3.59163 -1.03976e-07 7.99954L -1.03976e-07 12.0809L -1.03976e-07 15.346L 3.27081 15.346L 20.0064 15.346L 23.2772 15.346L 23.2772 12.0809L 23.2772 3.26512L 23.2772 -8.30362e-07Z"/>
<path id="path13_fill" d="M 8.31809e-07 20.3526L 11.993 20.3526C 14.6096 20.3526 16.7356 18.2302 16.7356 15.6181L 16.7356 1.66072e-06L 8.31809e-07 1.66072e-06L 8.31809e-07 20.3526L 8.31809e-07 20.3526Z"/>
<path id="path14_fill" d="M 20.0064 3.26512L 20.0064 18.9377C 20.0064 21.5498 17.8804 23.6721 15.2638 23.6721L 3.27081 23.6721L 3.27081 3.26512L 20.0064 3.26512ZM 23.2772 1.66072e-06L 20.0064 1.66072e-06L 3.27081 1.66072e-06L 8.31809e-07 1.66072e-06L 8.31809e-07 3.26512L 8.31809e-07 23.6177L 8.31809e-07 26.8828L 3.27081 26.8828L 15.2638 26.8828C 19.6794 26.8828 23.2772 23.2912 23.2772 18.8833L 23.2772 3.26512L 23.2772 1.66072e-06L 23.2772 1.66072e-06Z"/>
<path id="path15_fill" d="M 11.993 -8.30362e-07L 8.31809e-07 -8.30362e-07L 8.31809e-07 8.81582L 16.7356 8.81582L 16.7356 4.73442C 16.7356 2.06791 14.6096 -8.30362e-07 11.993 -8.30362e-07Z"/>
<path id="path16_fill" d="M 15.2638 3.26512C 17.8804 3.26512 20.0064 5.38744 20.0064 7.99954L 20.0064 12.0809L 3.27081 12.0809L 3.27081 3.26512L 15.2638 3.26512ZM 15.2638 -8.30362e-07L 3.27081 -8.30362e-07L 8.31809e-07 -8.30362e-07L 8.31809e-07 3.26512L 8.31809e-07 12.0809L 8.31809e-07 15.346L 3.27081 15.346L 20.0064 15.346L 23.2772 15.346L 23.2772 12.0809L 23.2772 7.99954C 23.2772 3.53721 19.6794 -8.30362e-07 15.2638 -8.30362e-07Z"/>
<path id="path17_fill" d="M 28.1289 -8.30362e-07C 12.6471 -8.30362e-07 -8.31809e-07 12.5707 -8.31809e-07 28.08C -8.31809e-07 29.1684 0.0545134 30.2567 0.218054 31.3451C 0.381594 32.5967 0.599647 33.794 0.926728 35.0456C 0.926728 35.2088 0.981242 35.3721 1.03576 35.5353C 1.1993 36.0251 2.78019 40.3786 3.87045 42.2288C 9.48534 52.8405 17.1172 61.9284 26.6571 69.2205C 26.8206 69.4381 27.0387 69.6014 27.3112 69.7102C 27.5293 69.8191 27.8019 69.8735 28.0199 69.8735C 28.0744 69.8735 28.1289 69.8735 28.1835 69.8735C 28.5105 69.8735 28.7831 69.8191 29.0557 69.6558C 29.2737 69.547 29.4918 69.3837 29.6008 69.2205C 50.9156 52.8949 55.1131 35.8074 55.2221 35.1544C 55.5492 33.8484 55.8218 32.5423 55.9853 31.2907C 56.0943 30.2023 56.2034 29.114 56.2034 28.0256C 56.2579 12.5707 43.6653 -8.30362e-07 28.1289 -8.30362e-07ZM 28.1289 44.9498C 19.9519 44.9498 13.3558 38.3651 13.3558 30.2023C 13.3558 22.0395 19.9519 15.4549 28.1289 15.4549C 36.306 15.4549 42.9021 22.0395 42.9021 30.2023C 42.9021 38.3651 36.306 44.9498 28.1289 44.9498Z"/>
<path id="path18_fill" d="M 31.9449 3.8093C 47.4267 3.8093 60.0738 16.38 60.0738 31.8893C 60.0738 32.9777 60.0193 34.066 59.8558 35.1544C 59.6922 36.4605 59.4742 37.7665 59.0926 39.0181C 58.929 39.6712 54.786 56.7586 33.4713 73.0842C 33.3077 73.2474 33.1442 73.4107 32.9261 73.5195C 32.6536 73.6828 32.3265 73.7372 32.0539 73.7372C 31.9994 73.7372 31.9449 73.7372 31.8904 73.7372C 31.6178 73.7372 31.3997 73.6828 31.1817 73.574C 30.9636 73.4651 30.7456 73.3019 30.5275 73.0842C 20.9877 65.7921 13.3013 56.7042 7.74091 46.0926C 6.65064 44.2423 5.06975 39.8888 4.90621 39.3991C 4.8517 39.2358 4.79718 39.0726 4.79718 38.9093C 4.4701 37.6577 4.25205 36.406 4.08851 35.2088C 3.97948 34.1205 3.87045 33.0321 3.87045 31.9437C 3.81594 16.38 16.4631 3.8093 31.9449 3.8093ZM 31.9449 48.7591C 40.1219 48.7591 46.718 42.1744 46.718 34.0116C 46.718 25.8488 40.1219 19.2642 31.9449 19.2642C 23.7679 19.2642 17.1717 25.8488 17.1717 34.0116C 17.1717 42.1744 23.8224 48.7591 31.9449 48.7591ZM 31.9449 -8.30362e-07C 14.337 -8.30362e-07 2.07952e-07 14.3121 2.07952e-07 31.8893C 2.07952e-07 33.0865 0.0545134 34.3381 0.218054 35.5898C 0.381594 36.9502 0.654161 38.3107 0.981242 39.6167C 1.03576 39.9433 1.14478 40.3242 1.25381 40.5963L 1.30832 40.7051C 2.18054 43.0451 3.37983 46.147 4.36107 47.8884C 10.1395 58.8809 18.0985 68.2953 27.9654 75.914C 28.4015 76.3493 28.8921 76.6758 29.3827 76.9479C 30.0369 77.2744 30.8001 77.4921 31.5088 77.4921C 31.6723 77.4921 31.8358 77.4921 31.9449 77.4921C 32.8171 77.4921 33.6893 77.2744 34.507 76.8935C 35.0521 76.6214 35.4883 76.2949 35.9244 75.914C 45.0826 68.8395 52.3329 60.84 57.4572 52.0786C 61.2731 45.5484 62.5269 40.9228 62.745 39.9433C 63.1266 38.5284 63.3991 37.0591 63.5627 35.5898C 63.7262 34.2837 63.7807 33.0321 63.7807 31.8893C 63.8898 14.3121 49.5527 -8.30362e-07 31.9449 -8.30362e-07ZM 31.9449 44.9498C 25.8939 44.9498 20.9877 40.0521 20.9877 34.0116C 20.9877 27.9712 25.8939 23.0735 31.9449 23.0735C 37.9959 23.0735 42.9021 27.9712 42.9021 34.0116C 42.9021 40.0521 37.9959 44.9498 31.9449 44.9498Z"/>
<path id="path19_fill" d="M 8.31809e-07 8.92465L 8.31809e-07 31.9437L 3.6524 35.4265L 7.3048 31.9437L 7.3048 -8.30362e-07C 7.3048 -8.30362e-07 5.50586 1.30605 3.32532 3.97256C 1.74443 5.82279 8.31809e-07 8.92465 8.31809e-07 8.92465Z"/>
<path id="path20_fill" d="M 8.94021 3.2107L 8.94021 35.1544L 5.2878 38.6372L 1.6354 35.1544L 1.6354 12.1353C 1.6354 12.1353 3.37983 8.97907 4.90621 7.18326C 7.19577 4.51675 8.94021 3.2107 8.94021 3.2107ZM 10.5756 4.15181e-07L 7.95896 1.90465C 7.90445 1.95907 5.99648 3.37395 3.6524 6.1493C 2.07151 8.05395 0.272568 11.2102 0.218054 11.3735L -4.15905e-07 11.7544L -4.15905e-07 12.1353L -4.15905e-07 35.1544L -4.15905e-07 35.8619L 0.490621 36.3516L 4.14302 39.8344L 5.2878 40.9228L 6.43259 39.8344L 10.085 36.3516L 10.5756 35.8619L 10.5756 35.1544L 10.5756 3.2107L 10.5756 4.15181e-07L 10.5756 4.15181e-07Z"/>
<path id="path21_fill" d="M 8.9402 9.68651L 0.817701 9.68651C 0.381593 9.68651 -8.31809e-07 9.30558 -8.31809e-07 8.87023L -8.31809e-07 0.816281C -8.31809e-07 0.380932 0.381593 1.66072e-06 0.817701 1.66072e-06L 8.9402 1.66072e-06C 9.37631 1.66072e-06 9.75791 0.380932 9.75791 0.816281L 9.75791 8.92465C 9.75791 9.36 9.37631 9.68651 8.9402 9.68651ZM 1.6354 8.10837L 8.1225 8.10837L 8.1225 1.57814L 1.6354 1.57814L 1.6354 8.10837Z"/>
<path id="path22_fill" d="M 10.0305 1.08837C 10.4666 1.08837 10.8482 1.4693 10.8482 1.90465L 10.8482 10.013C 10.8482 10.4484 10.4666 10.8293 10.0305 10.8293L 1.90797 10.8293C 1.47186 10.8293 1.09027 10.4484 1.09027 10.013L 1.09027 1.90465C 1.09027 1.4693 1.47186 1.08837 1.90797 1.08837L 10.0305 1.08837ZM 2.72567 9.19674L 9.21277 9.19674L 9.21277 2.66651L 2.72567 2.66651L 2.72567 9.19674ZM 10.0305 1.66072e-06L 1.90797 1.66072e-06C 0.872214 1.66072e-06 -8.31809e-07 0.870699 -8.31809e-07 1.90465L -8.31809e-07 10.013C -8.31809e-07 11.047 0.872214 11.9177 1.90797 11.9177L 10.0305 11.9177C 11.0662 11.9177 11.9384 11.047 11.9384 10.013L 11.9384 1.90465C 11.9384 0.816281 11.0662 1.66072e-06 10.0305 1.66072e-06ZM 3.81594 3.75488L 8.1225 3.75488L 8.1225 8.05395L 3.81594 8.05395L 3.81594 3.75488Z"/>
<path id="path23_fill" d="M 8.31809e-07 8.30362e-07L 8.31809e-07 32.107L 3.6524 35.5898L 7.3048 32.107L 7.3048 8.7614C 7.3048 8.7614 6.43258 7.07442 4.25205 4.19023C 2.72567 2.17674 8.31809e-07 8.30362e-07 8.31809e-07 8.30362e-07Z"/>
<path id="path24_fill" d="M 1.6354 3.37395C 1.6354 3.37395 4.36107 5.5507 5.88745 7.56419C 8.01347 10.4484 8.94021 12.1353 8.94021 12.1353L 8.94021 35.4809L 5.2878 38.9637L 1.6354 35.4809L 1.6354 3.37395ZM 8.31809e-07 4.15181e-07L 8.31809e-07 3.37395L 8.31809e-07 35.4809L 8.31809e-07 36.1884L 0.490623 36.6781L 4.14302 40.1609L 5.2878 41.2493L 6.43258 40.1609L 10.085 36.6781L 10.5756 36.1884L 10.5756 35.4809L 10.5756 12.1353L 10.5756 11.7544L 10.4121 11.3735C 10.3576 11.3191 9.43082 9.52326 7.25029 6.58465C 5.61488 4.40791 2.8347 2.17674 2.72567 2.06791L 8.31809e-07 4.15181e-07Z"/>
<path id="path25_fill" d="M 8.9402 9.68651L 0.817701 9.68651C 0.381593 9.68651 -8.31809e-07 9.30558 -8.31809e-07 8.87023L -8.31809e-07 0.816281C -8.31809e-07 0.380932 0.381593 1.66072e-06 0.817701 1.66072e-06L 8.9402 1.66072e-06C 9.37631 1.66072e-06 9.75791 0.380932 9.75791 0.816281L 9.75791 8.92465C 9.75791 9.36 9.43083 9.68651 8.9402 9.68651ZM 1.6354 8.10837L 8.1225 8.10837L 8.1225 1.57814L 1.6354 1.57814L 1.6354 8.10837Z"/>
<path id="path26_fill" d="M 10.0305 1.08837C 10.4666 1.08837 10.8482 1.4693 10.8482 1.90465L 10.8482 10.013C 10.8482 10.4484 10.4666 10.8293 10.0305 10.8293L 1.90797 10.8293C 1.47186 10.8293 1.09027 10.4484 1.09027 10.013L 1.09027 1.90465C 1.09027 1.4693 1.47186 1.08837 1.90797 1.08837L 10.0305 1.08837ZM 2.72567 9.19674L 9.21277 9.19674L 9.21277 2.66651L 2.72567 2.66651L 2.72567 9.19674ZM 10.0305 1.66072e-06L 1.90797 1.66072e-06C 0.872214 1.66072e-06 -8.31809e-07 0.870699 -8.31809e-07 1.90465L -8.31809e-07 10.013C -8.31809e-07 11.047 0.872214 11.9177 1.90797 11.9177L 10.0305 11.9177C 11.0662 11.9177 11.9384 11.047 11.9384 10.013L 11.9384 1.90465C 11.9384 0.816281 11.1207 1.66072e-06 10.0305 1.66072e-06ZM 3.81594 3.75488L 8.1225 3.75488L 8.1225 8.05395L 3.81594 8.05395L 3.81594 3.75488Z"/>
<path id="path27_fill" d="M 12.8652 0L 3.27081 0C 1.47186 0 8.31809e-07 1.4693 8.31809e-07 3.26512L 8.31809e-07 8.65256L 4.79718 8.65256L 4.79718 5.98605C 4.79718 5.71395 5.01524 5.44186 5.34232 5.44186L 10.7937 5.44186C 11.0662 5.44186 11.3388 5.65954 11.3388 5.98605L 11.3388 8.59814L 16.136 8.59814L 16.136 3.21069C 16.136 1.41488 14.6641 0 12.8652 0Z"/>
<path id="path28_fill" d="M 17.2262 9.74093L 11.3388 9.74093L 11.3388 6.58465L 5.94197 6.58465L 5.94197 9.74093L 8.31809e-07 9.74093L 8.31809e-07 3.8093C 8.31809e-07 1.74139 1.68992 -3.32145e-06 3.81594 -3.32145e-06L 13.4648 -3.32145e-06C 15.5363 -3.32145e-06 17.2808 1.68697 17.2808 3.8093L 17.2808 9.74093L 17.2262 9.74093ZM 12.4291 8.65256L 16.136 8.65256L 16.136 3.8093C 16.136 2.34 14.9367 1.08837 13.4103 1.08837L 3.81594 1.08837C 2.34408 1.08837 1.09027 2.28558 1.09027 3.8093L 1.09027 8.65256L 4.79718 8.65256L 4.79718 6.58465C 4.79718 5.98605 5.2878 5.49628 5.88745 5.49628L 11.3388 5.49628C 11.9384 5.49628 12.4291 5.98605 12.4291 6.58465L 12.4291 8.65256Z"/>
<path id="path29_fill" d="M 11.3388 1.66072e-06L 11.3388 2.77535C 11.3388 3.04744 11.1207 3.31953 10.7937 3.31953L 10.5211 3.31953L 10.5211 6.4214L 8.06799 9.19674L 5.61488 6.4214L 5.61488 3.31953L 5.34232 3.31953C 5.06975 3.31953 4.79718 3.10186 4.79718 2.77535L 4.79718 1.66072e-06L 8.31809e-07 1.66072e-06L 8.31809e-07 5.49628C 1.90797 7.34651 3.97948 9.08791 6.1055 10.7205C 6.26904 10.8293 6.43259 10.9926 6.65064 11.1558C 6.75967 11.2647 6.81418 11.3191 6.92321 11.4279C 7.03223 11.5367 7.14126 11.5912 7.25029 11.6456C 7.35931 11.7 7.46834 11.7544 7.63188 11.7544C 7.74091 11.8088 7.90445 11.8088 8.01348 11.8088C 8.06799 11.8088 8.1225 11.8088 8.17702 11.8088C 8.5041 11.8088 8.77666 11.7544 9.04923 11.5912C 9.26728 11.4823 9.48534 11.3191 9.59437 11.1558C 9.81242 10.9926 9.97596 10.8837 10.1395 10.7205C 12.32 9.03349 14.2825 7.34651 16.0815 5.65953L 16.0815 1.66072e-06L 11.3388 1.66072e-06L 11.3388 1.66072e-06Z"/>
<path id="path30_fill" d="M 8.66764 12.8972C 8.61313 12.8972 8.5041 12.8972 8.44958 12.8972C 8.34056 12.8972 8.17702 12.8428 8.01348 12.8428C 7.84993 12.7884 7.68639 12.734 7.52285 12.6795C 7.35931 12.6251 7.25029 12.5163 7.08675 12.4074C 6.97772 12.2986 6.8687 12.2442 6.75967 12.0809C 6.65064 12.0265 6.59613 11.9177 6.4871 11.8633L 6.26905 11.7C 4.14302 10.013 2.07151 8.27163 0.163539 6.4214L 8.31809e-07 6.25814L 8.31809e-07 1.66072e-06L 5.88745 1.66072e-06L 5.88745 3.31953L 6.70515 3.31953L 6.70515 6.74791L 8.61312 8.92465L 10.5211 6.74791L 10.5211 3.31953L 11.3388 3.31953L 11.3388 1.66072e-06L 17.2262 1.66072e-06L 17.2262 6.47581L 17.0627 6.63907C 15.1547 8.38047 13.1377 10.0674 11.0662 11.7L 10.8482 11.9177C 10.7391 11.9721 10.6846 12.0809 10.5756 12.1354C 10.3576 12.353 10.1395 12.5163 9.86693 12.6795C 9.43083 12.7884 9.04923 12.8972 8.66764 12.8972ZM 1.09027 5.82279C 2.94373 7.56419 4.90621 9.25116 6.97772 10.8293L 7.19577 10.9926C 7.3048 11.047 7.41383 11.1558 7.46834 11.2102L 7.52285 11.2647C 7.57737 11.3191 7.68639 11.4279 7.74091 11.4823C 7.84993 11.5367 7.90445 11.5912 8.01348 11.6456C 8.06799 11.7 8.17702 11.7 8.23153 11.7544C 8.34056 11.7544 8.39507 11.8088 8.5041 11.8088C 8.55861 11.8088 8.61312 11.8088 8.61312 11.8088C 8.83118 11.8088 9.04923 11.7544 9.26729 11.6456C 9.43083 11.5912 9.53985 11.4823 9.64888 11.3191L 9.70339 11.2647C 9.81242 11.2102 9.92145 11.1014 10.0305 10.9926L 10.303 10.7749C 12.32 9.19675 14.228 7.56418 16.027 5.93163L 16.027 1.03395L 12.32 1.03395L 12.32 3.26512C 12.32 3.75489 11.993 4.19023 11.5023 4.29907L 11.5023 7.07442L 8.5041 10.4484L 5.50586 7.07442L 5.50586 4.29907C 5.01524 4.19023 4.68816 3.75489 4.68816 3.26512L 4.68816 1.03395L 0.98124 1.03395L 0.98124 5.82279L 1.09027 5.82279Z"/>
<path id="path31_fill" d="M -1.66362e-06 0L -1.66362e-06 2.06791L -1.66362e-06 4.29907L 4.36107 4.29907L 4.36107 2.06791L 4.36107 0L -1.66362e-06 0Z"/>
<path id="path32_fill" d="M 5.45134 1.08837L 5.45134 3.15628L 5.45134 5.38744L 1.09027 5.38744L 1.09027 3.15628L 1.09027 1.08837L 5.45134 1.08837ZM 6.54161 0L 5.45134 0L 1.09027 0L -1.66362e-06 0L -1.66362e-06 1.08837L -1.66362e-06 3.15628L -1.66362e-06 5.38744L -1.66362e-06 6.47581L 1.09027 6.47581L 5.45134 6.47581L 6.54161 6.47581L 6.54161 5.38744L 6.54161 3.15628L 6.54161 1.08837L 6.54161 0Z"/>
<path id="path33_fill" d="M 1.66362e-06 3.10186L 2.39859 5.87721L 4.85169 3.10186L 4.85169 -3.32145e-06L 1.66362e-06 -3.32145e-06L 1.66362e-06 3.10186Z"/>
<path id="path34_fill" d="M 5.94196 1.08837L 5.94196 4.19024L 3.48886 6.96558L 1.03575 4.19024L 1.03575 1.08837L 5.94196 1.08837ZM 7.03223 -3.32145e-06L 5.94196 -3.32145e-06L 1.09027 -3.32145e-06L 1.66362e-06 -3.32145e-06L 1.66362e-06 1.08837L 1.66362e-06 4.19024L 1.66362e-06 4.62558L 0.272569 4.95209L 2.72567 7.72745L 3.54338 8.65256L 4.36108 7.72745L 6.81418 4.95209L 7.08675 4.62558L 7.08675 4.19024L 7.08675 1.08837L 7.08675 -3.32145e-06L 7.03223 -3.32145e-06Z"/>
<path id="path35_fill" d="M 5.99648 0L 0.545133 0C 0.272566 0 -1.66362e-06 0.217674 -1.66362e-06 0.544186L -1.66362e-06 3.15628L -1.66362e-06 5.93162C -1.66362e-06 6.20372 0.218052 6.47581 0.545133 6.47581L 0.8177 6.47581L 5.6694 6.47581L 5.94196 6.47581C 6.21453 6.47581 6.4871 6.25814 6.4871 5.93162L 6.4871 3.15628L 6.4871 0.544186C 6.54161 0.217674 6.26904 0 5.99648 0ZM 5.45134 5.38744L 1.09027 5.38744L 1.09027 3.15628L 1.09027 1.08837L 5.45134 1.08837L 5.45134 3.15628L 5.45134 5.38744Z"/>
<path id="path36_fill" d="M 7.08675 1.08837C 7.35931 1.08837 7.63188 1.30605 7.63188 1.63256L 7.63188 4.24465L 7.63188 7.02C 7.63188 7.29209 7.41383 7.56418 7.08675 7.56418L 6.81418 7.56418L 1.96249 7.56418L 1.68992 7.56418C 1.41735 7.56418 1.14478 7.34651 1.14478 7.02L 1.14478 4.24465L 1.14478 1.63256C 1.14478 1.36047 1.36284 1.08837 1.68992 1.08837L 7.08675 1.08837ZM 2.18054 6.47581L 6.54161 6.47581L 6.54161 4.24465L 6.54161 2.17674L 2.18054 2.17674L 2.18054 4.24465L 2.18054 6.47581ZM 7.08675 0L 1.6354 0C 0.763187 0 -1.66362e-06 0.707442 -1.66362e-06 1.63256L -1.66362e-06 4.24465L -1.66362e-06 7.02C -1.66362e-06 7.89069 0.708673 8.65256 1.6354 8.65256L 1.90797 8.65256L 6.75967 8.65256L 7.03223 8.65256C 7.90445 8.65256 8.66764 7.94511 8.66764 7.02L 8.66764 4.24465L 8.66764 1.63256C 8.72215 0.707442 7.95896 0 7.08675 0ZM 3.27081 3.26512L 5.45134 3.26512L 5.45134 4.24465L 5.45134 5.38744L 3.27081 5.38744L 3.27081 4.24465L 3.27081 3.26512Z"/>
</defs>
</svg>
